<svg width="1800" height="1350" viewBox="0 0 800 600" fill="none" xmlns="http://www.w3.org/2000/svg" data-reactroot="">
<path d="M772.246 391.755C772.246 472.727 699.694 500.137 618.908 550.455C548.188 594.503 455.375 589.859 352.565 589.859C262.465 589.859 194.571 593.774 127.796 559.034C31.335 508.848 27 379.623 27 289.887C27 210.913 99.7866 252.109 177.122 201.959C248.49 155.678 380.234 10.0175 485.943 10.0175C611.074 10.0175 704.692 4.65729 697.186 181.585C689.68 358.513 772.246 326.171 772.246 391.755Z" fill="#E9E8FA" stroke="#221b38" stroke-width="1"></path>
<ellipse cx="372.058" cy="427.058" rx="236.438" ry="136.033" fill="#612F82"></ellipse>
<path d="M608.495 427.058C608.495 502.187 502.638 563.09 372.058 563.09C241.477 563.09 135.62 502.187 135.62 427.058C135.62 351.929 241.477 291.025 372.058 291.025C502.638 291.025 608.495 351.929 608.495 427.058Z" fill="black" fill-opacity="0.2" stroke="#221b38" stroke-width="1"></path>
<path d="M608.495 401.148C608.495 476.276 502.638 537.18 372.058 537.18C241.477 537.18 135.62 476.276 135.62 401.148C135.62 326.019 241.477 265.115 372.058 265.115C502.638 265.115 608.495 326.019 608.495 401.148Z" fill="#C4B6FF" stroke="#221b38" stroke-width="1"></path>
<path d="M608.495 401.148C608.495 476.276 502.638 537.18 372.058 537.18C241.477 537.18 135.62 476.276 135.62 401.148C135.62 326.019 241.477 265.115 372.058 265.115C502.638 265.115 608.495 326.019 608.495 401.148Z" fill="white" fill-opacity="0.2" stroke="#221b38" stroke-width="1"></path>
<path d="M389.461 390.468V121.126C389.461 106.669 414.021 101.259 422.352 105.415L524.737 156.331C533.238 160.572 538.61 169.255 538.61 178.755V439.805C538.61 451.865 518.702 465.554 510.373 461.418L409.039 411.142C394.473 404.251 389.461 399.926 389.461 390.468Z" fill="#C4B6FF" stroke="#221b38" stroke-width="1"></path>
<path d="M389.461 390.468V121.126C389.461 106.669 414.021 101.259 422.352 105.415L524.737 156.331C533.238 160.572 538.61 169.255 538.61 178.755V439.805C538.61 451.865 518.702 465.554 510.373 461.418L409.039 411.142C394.473 404.251 389.461 399.926 389.461 390.468Z" fill="black" fill-opacity="0.3" stroke="#221b38" stroke-width="1"></path>
<path d="M389.461 389.938V121.127C389.461 111.818 399.254 105.76 407.584 109.915L513.102 162.554C521.603 166.795 526.975 175.478 526.975 184.978V449.665C526.975 458.964 517.202 465.023 508.873 460.887L399.896 406.771C393.504 403.597 389.461 397.075 389.461 389.938Z" fill="#C4B6FF" stroke="#221b38" stroke-width="1"></path>
<path d="M399.938 387.597V130.02C399.938 125.387 404.794 122.357 408.957 124.393L424.352 131.925C424.352 131.925 423.275 142.848 427.191 145.667C431.106 148.487 478.668 172.606 485.767 174.486C492.867 176.365 492.659 166.185 492.659 166.185L506.442 173.389C512.889 176.544 516.465 181.542 516.465 188.719V443.738C516.465 448.401 511.553 451.43 507.387 449.335L406.841 398.792C402.609 396.665 399.938 392.333 399.938 387.597Z" fill="#B5CDFB" stroke="#221b38" stroke-width="1"></path>
<path fill-rule="evenodd" clip-rule="evenodd" d="M441.032 142.322C441.496 141.393 442.625 141.017 443.553 141.481L461.095 150.252C462.024 150.716 462.4 151.845 461.936 152.773C461.471 153.702 460.342 154.078 459.414 153.614L441.872 144.843C440.944 144.379 440.568 143.25 441.032 142.322Z" fill="black" fill-opacity="0.5" stroke="#221b38" stroke-width="1"></path>
<path d="M472.137 155.718C473.169 157.213 473.314 158.903 472.459 159.492C471.605 160.082 470.076 159.348 469.044 157.853C468.012 156.358 467.868 154.668 468.722 154.079C469.576 153.489 471.106 154.223 472.137 155.718Z" fill="black" fill-opacity="0.5" stroke="#221b38" stroke-width="1"></path>
<path fill-rule="evenodd" clip-rule="evenodd" d="M532.3 225.231C534.03 225.231 535.433 226.634 535.433 228.364V252.64C535.433 254.37 534.03 255.773 532.3 255.773C530.57 255.773 529.168 254.37 529.168 252.64V228.364C529.168 226.634 530.57 225.231 532.3 225.231Z" fill="black" fill-opacity="0.5" stroke="#221b38" stroke-width="1"></path>
<path d="M492.642 279.703L418.551 242.102C415.787 240.661 414.054 237.802 414.054 234.685V170.633C414.054 167.542 417.292 165.518 420.07 166.873L494.061 202.955C496.936 204.357 498.76 207.276 498.76 210.475V275.994C498.76 279.135 495.427 281.156 492.642 279.703Z" fill="#C4B6FF" stroke="#221b38" stroke-width="1"></path>
<path d="M422.975 191.614V182.482C422.975 180.876 424.709 179.87 426.104 180.666L485.411 210.035C486.714 210.78 487.518 212.166 487.518 213.667V222.799C487.518 224.405 485.783 225.412 484.389 224.615L425.082 195.246C423.779 194.501 422.975 193.115 422.975 191.614Z" fill="#B5CDFB" stroke="#221b38" stroke-width="1"></path>
<path d="M422.975 212.612V203.48C422.975 201.874 424.709 200.868 426.104 201.664L485.411 231.033C486.714 231.778 487.518 233.164 487.518 234.665V243.797C487.518 245.403 485.783 246.41 484.389 245.613L425.082 216.244C423.779 215.499 422.975 214.113 422.975 212.612Z" fill="#B5CDFB" stroke="#221b38" stroke-width="1"></path>
<path d="M422.392 233.421V224.289C422.392 222.683 424.126 221.676 425.521 222.473L484.828 251.842C486.131 252.587 486.935 253.973 486.935 255.474V264.606C486.935 266.212 485.2 267.218 483.806 266.422L424.499 237.053C423.196 236.308 422.392 234.922 422.392 233.421Z" fill="#B5CDFB" stroke="#221b38" stroke-width="1"></path>
<path d="M486.935 349.694V300.44C486.935 296.632 490.874 294.101 494.337 295.685L558.359 324.952L563.789 327.434C567.139 328.965 569.288 332.31 569.288 335.994V387.454C569.288 389.591 568.05 391.319 566.357 392.151C564.986 392.825 563.316 392.911 561.763 392.151L492.213 358.149C488.983 356.57 486.935 353.289 486.935 349.694Z" fill="#7D55FF" stroke="#221b38" stroke-width="1"></path>
<path d="M569.289 335.994V387.454C569.289 389.591 568.051 391.32 566.357 392.152L531.832 336.847L558.36 324.952L563.79 327.434C567.14 328.966 569.289 332.311 569.289 335.994Z" fill="black" fill-opacity="0.2" stroke="#221b38" stroke-width="1"></path>
<path d="M568.02 331.275C568.835 332.682 569.289 334.302 569.289 335.995V374.084L531.832 336.848L568.02 331.275Z" fill="black" fill-opacity="0.2" stroke="#221b38" stroke-width="1"></path>
<path d="M563.789 327.434C567.139 328.965 569.288 332.31 569.288 335.994V349.694L525.593 309.973L563.789 327.434Z" fill="black" fill-opacity="0.2" stroke="#221b38" stroke-width="1"></path>
<path d="M502.912 327.275L494.989 323.264C494.293 322.912 493.471 323.418 493.471 324.198V331.944C493.471 332.725 493.906 333.441 494.599 333.8L502.532 337.913C503.228 338.274 504.059 337.769 504.059 336.985V329.141C504.059 328.353 503.616 327.631 502.912 327.275Z" fill="white" fill-opacity="0.5" stroke="#221b38" stroke-width="1"></path>
<path d="M423.322 283.563L415.399 279.553C414.703 279.2 413.881 279.706 413.881 280.486V288.232C413.881 289.013 414.316 289.729 415.01 290.088L422.942 294.202C423.638 294.562 424.469 294.057 424.469 293.273V285.429C424.469 284.641 424.026 283.919 423.322 283.563Z" fill="#C4B6FF" stroke="#221b38" stroke-width="1"></path>
<path d="M423.321 302.177L415.398 298.167C414.702 297.815 413.88 298.32 413.88 299.1V306.846C413.88 307.627 414.315 308.343 415.009 308.703L422.941 312.816C423.637 313.177 424.468 312.672 424.468 311.887V304.043C424.468 303.255 424.025 302.533 423.321 302.177Z" fill="#C4B6FF" stroke="#221b38" stroke-width="1"></path>
<path d="M423.321 320.51L415.398 316.5C414.702 316.148 413.88 316.653 413.88 317.433V325.179C413.88 325.96 414.315 326.676 415.009 327.036L422.941 331.149C423.637 331.51 424.468 331.005 424.468 330.22V322.376C424.468 321.588 424.025 320.866 423.321 320.51Z" fill="#C4B6FF" stroke="#221b38" stroke-width="1"></path>
<path d="M423.321 338.844L415.398 334.834C414.702 334.482 413.88 334.987 413.88 335.767V343.513C413.88 344.294 414.315 345.01 415.009 345.37L422.941 349.483C423.637 349.844 424.468 349.339 424.468 348.554V340.71C424.468 339.922 424.025 339.2 423.321 338.844Z" fill="#C4B6FF" stroke="#221b38" stroke-width="1"></path>
<path d="M519.304 315.012L495.865 304.347C495.172 304.032 494.386 304.538 494.386 305.299V308.08C494.386 308.9 494.865 309.644 495.611 309.983L519.051 320.648C519.743 320.963 520.53 320.457 520.53 319.697V316.916C520.53 316.096 520.051 315.352 519.304 315.012Z" fill="black" fill-opacity="0.5" stroke="#221b38" stroke-width="1"></path>
<path d="M456.993 302.328L433.553 291.662C432.861 291.347 432.074 291.854 432.074 292.614V295.395C432.074 296.215 432.553 296.959 433.3 297.299L456.739 307.964C457.432 308.279 458.218 307.773 458.218 307.012V304.231C458.218 303.411 457.739 302.667 456.993 302.328Z" fill="#C4B6FF" stroke="#221b38" stroke-width="1"></path>
<path d="M456.993 321.065L433.553 310.4C432.861 310.085 432.074 310.591 432.074 311.352V314.132C432.074 314.952 432.553 315.697 433.3 316.036L456.739 326.701C457.432 327.016 458.218 326.51 458.218 325.749V322.969C458.218 322.149 457.739 321.404 456.993 321.065Z" fill="#C4B6FF" stroke="#221b38" stroke-width="1"></path>
<path d="M456.993 340.026L433.553 329.361C432.861 329.046 432.074 329.552 432.074 330.313V333.093C432.074 333.913 432.553 334.657 433.3 334.997L456.739 345.662C457.432 345.977 458.218 345.471 458.218 344.71V341.93C458.218 341.11 457.739 340.365 456.993 340.026Z" fill="#C4B6FF" stroke="#221b38" stroke-width="1"></path>
<path d="M456.993 358.762L433.553 348.097C432.861 347.782 432.074 348.288 432.074 349.049V351.83C432.074 352.65 432.553 353.394 433.3 353.733L456.739 364.398C457.432 364.713 458.218 364.207 458.218 363.447V360.666C458.218 359.846 457.739 359.102 456.993 358.762Z" fill="#C4B6FF" stroke="#221b38" stroke-width="1"></path>
<path d="M560.763 332.667L541.507 323.905C540.938 323.646 540.292 324.062 540.292 324.687V326.972C540.292 327.645 540.686 328.257 541.299 328.536L560.554 337.297C561.123 337.556 561.769 337.14 561.769 336.515V334.231C561.769 333.557 561.376 332.946 560.763 332.667Z" fill="white" fill-opacity="0.5" stroke="#221b38" stroke-width="1"></path>
<path d="M520.168 362.509L497 351.139C496.318 350.804 495.521 351.3 495.521 352.06V354.081C495.521 354.864 495.966 355.58 496.669 355.925L519.838 367.295C520.52 367.63 521.317 367.133 521.317 366.373V364.352C521.317 363.569 520.872 362.854 520.168 362.509Z" fill="black" fill-opacity="0.69" stroke="#221b38" stroke-width="1"></path>
<path d="M562.781 381.594L551.511 375.7C550.828 375.365 550.031 375.862 550.031 376.622V379.688C550.031 380.472 550.477 381.187 551.18 381.532L562.451 387.426C563.133 387.761 563.93 387.264 563.93 386.504V383.438C563.93 382.654 563.484 381.939 562.781 381.594Z" fill="black" fill-opacity="0.5" stroke="#221b38" stroke-width="1"></path>
<path d="M177.134 111.283V41.3704C177.134 37.5087 186.284 29.7924 193.015 32.485L293.603 81.3945C297.202 83.1449 299.487 86.7965 299.487 90.7993V166.742C299.487 170.637 287.015 173.165 283.537 171.41L182.88 120.62C179.356 118.841 177.134 115.231 177.134 111.283Z" fill="#B5CDFB" stroke="#221b38" stroke-width="1"></path>
<path d="M177.134 111.283V41.3704C177.134 37.5087 186.284 29.7924 193.015 32.485L293.603 81.3945C297.202 83.1449 299.487 86.7965 299.487 90.7993V166.742C299.487 170.637 287.015 173.165 283.537 171.41L182.88 120.62C179.356 118.841 177.134 115.231 177.134 111.283Z" fill="black" fill-opacity="0.5" stroke="#221b38" stroke-width="1"></path>
<path d="M177.134 111.283V41.3696C177.134 37.5079 181.176 34.9786 184.649 36.6672L285.237 85.5767C288.836 87.3271 291.121 90.9787 291.121 94.9815V166.741C291.121 170.636 287.015 173.164 283.537 171.409L182.88 120.619C179.356 118.841 177.134 115.23 177.134 111.283Z" fill="#B5CDFB" stroke="#221b38" stroke-width="1"></path>
<path d="M187.171 75.9802C187.864 74.7136 189.453 74.2489 190.72 74.9422L215.543 87.8886C215.543 87.8886 242.634 84.6544 243.991 84.7682C245.347 84.8821 268.335 89.5731 268.335 89.5731C267.677 88.2883 268.033 86.4177 269.318 85.7589C270.602 85.1 272.178 85.6074 272.837 86.8922L276.544 94.1219L269.941 98.2725C268.719 99.0409 267.105 98.6728 266.336 97.4504C265.752 96.5209 265.825 95.3652 266.431 94.5268C266.431 94.5268 245.478 90.1762 243.991 90.1762C242.503 90.1762 215.543 93.3135 215.543 93.3135C214.784 93.4058 213.422 93.3295 212.751 92.9623L188.209 79.5288C186.943 78.8355 186.478 77.2468 187.171 75.9802Z" fill="#C4B6FF" stroke="#221b38" stroke-width="1"></path>
<path d="M193.606 114.121V86.1913C193.606 85.7651 194.089 85.5179 194.435 85.767L199.708 89.5634C199.981 89.7599 200.142 90.0757 200.142 90.4121V117.711C200.142 118.118 199.699 118.369 199.351 118.16L194.114 115.018C193.799 114.829 193.606 114.488 193.606 114.121Z" fill="#C4B6FF" stroke="#221b38" stroke-width="1"></path>
<path d="M230.032 133.213V94.8261C230.032 94.3999 230.515 94.1527 230.861 94.4017L236.133 98.1982C236.406 98.3947 236.568 98.7105 236.568 99.0468V136.804C236.568 137.21 236.125 137.461 235.776 137.252L230.54 134.11C230.225 133.921 230.032 133.581 230.032 133.213Z" fill="#C4B6FF" stroke="#221b38" stroke-width="1"></path>
<path d="M248.245 142.077V97.4149C248.245 96.9887 248.728 96.7416 249.074 96.9906L254.346 100.787C254.619 100.984 254.781 101.299 254.781 101.636V145.667C254.781 146.073 254.338 146.324 253.989 146.115L248.753 142.973C248.438 142.784 248.245 142.444 248.245 142.077Z" fill="#C4B6FF" stroke="#221b38" stroke-width="1"></path>
<path d="M266.458 150.281V105.62C266.458 105.193 266.941 104.946 267.286 105.195L272.559 108.992C272.832 109.188 272.994 109.504 272.994 109.84V153.871C272.994 154.278 272.551 154.529 272.202 154.32L266.966 151.178C266.651 150.989 266.458 150.649 266.458 150.281Z" fill="#C4B6FF" stroke="#221b38" stroke-width="1"></path>
<path d="M211.819 123.31V99.5629C211.819 99.1367 212.302 98.8895 212.648 99.1385L217.921 102.935C218.194 103.132 218.355 103.447 218.355 103.784V126.9C218.355 127.306 217.912 127.557 217.563 127.348L212.327 124.206C212.012 124.017 211.819 123.677 211.819 123.31Z" fill="#C4B6FF" stroke="#221b38" stroke-width="1"></path>
<path d="M104.63 179.411V149.296C104.63 145.475 112.771 137.454 123.531 140.249C123.826 140.325 124.113 140.438 124.386 140.574L212.518 184.322C216.092 186.082 218.356 189.72 218.356 193.704V226.936C218.356 234.34 204.583 236.088 201.106 234.34L110.392 188.755C106.859 186.98 104.63 183.365 104.63 179.411Z" fill="#C4B6FF" stroke="#221b38" stroke-width="1"></path>
<path d="M104.63 179.411V149.296C104.63 145.475 112.771 137.454 123.531 140.249C123.826 140.325 124.113 140.438 124.386 140.574L212.518 184.322C216.092 186.082 218.356 189.72 218.356 193.704V226.936C218.356 234.34 204.583 236.088 201.106 234.34L110.392 188.755C106.859 186.98 104.63 183.365 104.63 179.411Z" fill="black" fill-opacity="0.19" stroke="#221b38" stroke-width="1"></path>
<path d="M104.63 179.412V149.296C104.63 145.423 108.694 142.894 112.169 144.606L202.845 189.26C206.419 191.02 208.683 194.658 208.683 198.642V229.669C208.683 233.56 204.583 236.088 201.106 234.341L110.392 188.756C106.859 186.981 104.63 183.365 104.63 179.412Z" fill="#C4B6FF" stroke="#221b38" stroke-width="1"></path>
<path d="M115 173.621V164.489C115 162.883 116.735 161.876 118.129 162.673L123.873 165.955C125.176 166.7 125.98 168.086 125.98 169.587V178.719C125.98 180.325 124.246 181.332 122.851 180.535L117.108 177.253C115.804 176.508 115 175.122 115 173.621Z" fill="#B5CDFB" stroke="#221b38" stroke-width="1"></path>
<path fill-rule="evenodd" clip-rule="evenodd" d="M134.308 170.927C134.826 169.895 136.083 169.478 137.116 169.997L188.096 195.618C189.128 196.137 189.544 197.394 189.026 198.426C188.507 199.458 187.25 199.874 186.218 199.356L135.237 173.735C134.205 173.216 133.789 171.959 134.308 170.927ZM133.783 183.218C134.299 182.185 135.556 181.766 136.589 182.283L173.19 200.584C174.223 201.1 174.642 202.356 174.126 203.39C173.609 204.423 172.353 204.842 171.32 204.325L134.718 186.024C133.685 185.508 133.266 184.251 133.783 183.218Z" fill="#B5CDFB" stroke="#221b38" stroke-width="1"></path>
<path d="M698.821 368.178C697.775 374.755 708.704 443.465 602.239 487.243C536.585 514.239 481.716 510.772 466.029 510.772V483.321C561.716 477.046 586.711 466.288 621.847 448.811C666.388 426.656 693.352 382.896 698.821 368.178C698.821 368.178 692.686 331.581 674.658 310.51C656.629 289.439 639.771 279.118 630.734 275.216V252.209C657.245 266.457 674.153 283.505 684.854 301.359C698.107 323.474 701.919 348.706 698.821 368.178Z" fill="#B5CDFB" fill-opacity="0.24" stroke="#221b38" stroke-width="1"></path>
<path d="M698.821 368.178C697.775 374.755 708.704 443.465 602.239 487.242C536.585 514.239 481.716 510.772 466.029 510.772V484.366C561.716 478.092 586.711 467.333 621.847 449.856C666.388 427.702 693.352 382.895 698.821 368.178C698.821 368.178 692.686 331.58 674.658 310.51C656.629 289.439 639.771 279.117 630.734 275.215V253.254C657.245 267.503 674.153 284.55 684.854 302.405C698.107 324.52 701.919 348.705 698.821 368.178Z" fill="#B5CDFB" fill-opacity="0.31" stroke="#221b38" stroke-width="1"></path>
<path d="M56.3283 442.766C57.3747 449.343 46.4454 518.053 152.91 561.83C218.564 588.827 273.434 585.36 289.12 585.36V557.909C193.433 551.634 168.438 540.876 133.302 523.399C88.7618 501.244 61.7973 457.484 56.3283 442.766C56.3283 442.766 62.4629 406.168 80.4918 385.098C98.5206 364.027 115.378 353.705 124.416 349.803V326.797C97.9038 341.045 80.9963 358.092 70.2956 375.947C57.0421 398.062 53.2304 423.294 56.3283 442.766Z" fill="#B5CDFB" fill-opacity="0.24" stroke="#221b38" stroke-width="1"></path>
<path d="M56.3283 442.765C57.3747 449.343 46.4454 518.052 152.91 561.83C218.564 588.826 273.434 585.359 289.12 585.359V558.954C193.433 552.679 168.438 541.921 133.302 524.444C88.7618 502.289 61.7973 457.483 56.3283 442.765C56.3283 442.765 62.4629 406.168 80.4918 385.097C98.5206 364.026 115.378 353.705 124.416 349.803V327.842C97.9038 342.09 80.9963 359.137 70.2956 376.992C57.0421 399.107 53.2304 423.293 56.3283 442.765Z" fill="#B5CDFB" fill-opacity="0.31" stroke="#221b38" stroke-width="1"></path>
<path d="M482.817 62.3265C482.817 62.3265 480.58 58.7465 482.817 49.6848C485.055 40.623 484.048 33.0156 484.048 33.0156C484.048 33.0156 484.509 26.4154 487.411 24.6254C490.313 22.8355 494.571 19.7029 494.571 19.7029C497.479 18.1367 503.402 17.1297 511.345 23.7304C520.27 31.1473 511.121 36.8193 514.925 48.6779C517.968 58.1648 520.176 54.6818 518.281 60.8721C516.386 67.0625 526.672 65.5708 522.539 70.7173C516.1 78.7371 513.843 85.0368 507.765 85.0368C501.5 85.0368 497.473 84.0299 494.571 81.2331C494.571 81.2331 488.746 75.5276 487.411 72.8426C486.075 70.1576 482.817 62.3265 482.817 62.3265Z" fill="black" stroke="#221b38" stroke-width="1"></path>
<path d="M548.153 113.452C544.013 112.725 540.463 114.961 538.196 113.452C535.929 111.943 540.795 120.221 540.795 120.221C543.808 121.142 546.673 119.883 549.074 119.019C550.738 118.42 550.133 118.481 552.318 117.453C554.263 116.538 554.467 115.287 555.562 113.761C557.129 111.579 557.52 109.789 555.562 110.069C553.605 110.349 552.119 114.149 548.153 113.452Z" fill="#B08687" stroke="#221b38" stroke-width="1"></path>
<path d="M526.113 71.7795C526.113 67.2488 521.358 64.2897 518.785 65.5707C516.212 66.8517 515.876 69.2621 515.876 73.5133L515.877 89.4553C515.877 89.4553 515.597 105.174 517.611 108.082C518.973 110.05 520.042 112.538 524.155 114.632C526.123 115.634 529.552 115.975 533.608 117.513C537.665 119.051 538.215 119.446 540.768 120.226C543.322 121.006 546.758 119.859 549.159 118.995C550.393 118.551 552.599 117.457 553.074 117.066C553.55 116.674 554.613 114.94 554.892 114.185C555.172 113.43 556.179 110.493 556.179 110.493C556.531 109.681 557.465 107.64 556.375 107.64C555.004 107.64 554.482 108.871 554.137 109.586C553.624 110.649 552.983 112.501 552.487 113.402C552.179 113.961 550.523 117.16 550.222 117.205C550.222 117.205 551.176 115.741 551.396 114.716C551.549 114.007 551.826 113.367 551.936 112.758C552.172 111.458 552.57 110.09 551.936 109.85C551.302 109.609 550.222 110.353 550.026 111.5C549.83 112.647 549.465 114.185 549.159 114.716C548.852 115.248 547.313 117.205 547.313 117.205C547.313 117.205 547.928 115.387 547.928 114.185C547.928 112.749 548.488 111.612 547.928 110.968C547.369 110.325 546.014 111.407 545.859 112.339C545.691 113.346 545.809 114.241 545.635 115.164C545.439 116.199 544.567 117.075 544.292 117.205C542.922 117.854 539.985 114.073 539.314 113.738C537.3 112.731 528.127 107.361 526.672 105.795C525.218 104.228 526.672 93.6957 526.672 90.2948C526.672 87.7454 525.777 83.2167 525.777 79.1074C525.777 76.3644 526.113 73.5932 526.113 71.7795Z" fill="#D5A2A3" stroke="#221b38" stroke-width="1"></path>
<path d="M492.383 49.5158C493.949 51.8651 496.435 54.3872 498.48 55.4451C500.864 56.678 501.573 57.2834 505.195 57.3422C505.157 57.9777 505.227 60.4178 506.479 61.7659C507.933 63.3321 510.898 64.1712 513.695 64.4509C516.492 64.7306 518.114 64.7865 520.239 65.234C522.365 65.6815 519.4 77.0926 519.512 79.7216C519.624 82.3506 521.813 86.6523 521.414 90.4615C520.911 95.272 517.554 96.167 516.939 101.034C516.447 104.927 516.398 108.082 516.939 110.095C520.239 114.57 525.721 125.534 525.721 131.799C525.721 139.303 522.533 151.097 510.898 151.097C506.691 151.097 503.015 150.635 500.102 150.761C494.959 150.984 492.495 152.663 486.621 151.097C480.748 149.531 475.363 145.114 476.441 133.253C477.336 123.408 489.678 115.13 489.678 110.095C490.313 98.1248 486.722 94.8937 485.503 89.7343C484.283 84.5748 483.531 81.3144 482.147 75.862C480.357 68.8139 478.399 67.1918 474.931 64.7306C478.007 63.9474 480.849 63.3769 485.503 62.6609C491.32 61.7659 491.768 60.4234 491.768 56.0604C491.768 53.3557 490.114 46.7827 489.678 44.8848C490.656 46.9255 491.681 48.4629 492.364 49.488L492.383 49.5158Z" fill="#ECB3B5" stroke="#221b38" stroke-width="1"></path>
<path d="M499.23 70.5227C500.037 71.4601 500.146 72.0065 500.146 72.0065L498.845 70.5682L497.209 69.5994C497.209 69.5994 498.423 69.5854 499.23 70.5227Z" fill="black" fill-opacity="0.06" stroke="#221b38" stroke-width="1"></path>
<path d="M505.23 69.5144C504.305 70.4839 503.657 71.5928 503.657 71.5928L505.523 69.7811L507.44 68.3936C507.44 68.3936 506.156 68.5449 505.23 69.5144Z" fill="black" fill-opacity="0.06" stroke="#221b38" stroke-width="1"></path>
<path d="M494.537 136.745C494.537 144.345 501.277 151.265 510.003 151.265C518.73 151.265 522.058 145.024 522.729 148.157C523.4 151.29 521.432 154.355 520.268 161.246C518.814 169.861 519.597 172.862 519.597 181.272C519.597 190.781 520.442 195.197 519.597 201.856C518.751 208.515 516.604 209.104 514.786 213.267C512.225 219.134 514.937 220.688 516.017 225.685C517.499 232.541 514.786 233.735 515.653 236.625C516.52 239.514 520.631 242.386 525.162 242.386C528.015 242.386 531.527 237.184 530.085 234.107C528.643 231.031 526.84 222.506 526.84 220.179C526.84 217.27 527.903 212.012 528.015 206.531C528.127 201.049 534.089 178.921 535.846 169.5C536.769 164.553 536.042 155.156 537.748 147.126C539.079 140.858 538.307 136.162 536.602 134.397C534.329 132.045 531.642 130.508 528.239 129.226C524.248 127.723 520.224 126.086 517.024 124.999C512.192 123.358 510.199 122.873 508.298 122.985C500.698 122.985 494.537 129.146 494.537 136.745Z" fill="#D5A2A3" stroke="#221b38" stroke-width="1"></path>
<path d="M530.084 234.108C531.526 237.185 528.014 242.387 525.162 242.387C520.631 242.387 516.519 239.514 515.652 236.625C514.786 233.736 517.498 232.542 516.016 225.686L515.652 232.598H514.786V221.898C513.781 219.362 512.996 217.369 514.786 213.268C515.069 212.62 515.36 212.058 515.652 211.547C515.652 215.761 516.581 220.224 516.939 222.193C517.386 224.655 518.069 227.874 518.897 231.311C520.015 235.954 527.269 235.45 527.269 231.759C527.269 229.205 527.126 226.888 527.269 223.641C527.891 227.139 529.075 231.956 530.084 234.108Z" fill="#7D55FF" stroke="#221b38" stroke-width="1"></path>
<path d="M514.786 222.194C515.219 223.286 515.663 224.438 515.989 225.942L515.653 232.599H514.786V222.194Z" fill="black" fill-opacity="0.33" stroke="#221b38" stroke-width="1"></path>
<path d="M476.525 135.852C475.881 143.77 481.027 151.602 490.285 151.602C499.543 151.602 501.612 147.909 508.548 143.77C515.102 139.86 524.518 130.147 527.427 131.601C530.336 133.055 530.151 140.135 535.37 146.704C541.859 154.87 548.085 159.392 553.941 165.834C557.297 169.526 560.654 173.441 560.654 178.252C560.654 183.063 560.233 183.481 560.654 186.282C560.654 186.282 581.322 189.694 584.958 188.576C588.594 187.457 595.418 180.801 595.921 178.924C596.425 177.047 595.384 174.986 593.544 175.567C591.419 176.239 588.846 179.706 585.937 178.924C584.199 178.456 579.52 175.782 574.665 171.515C571.394 168.64 568.15 164.301 565.268 162.23C558.108 157.083 552.403 139.855 549.914 135.852C547.425 131.85 539.398 119.183 539.398 119.183C539.398 119.183 536.663 111.926 530.448 113.03C524.232 114.135 495.879 120.836 490.285 121.731C484.691 122.627 476.525 128.253 476.525 135.852Z" fill="#F8BCBF" stroke="#221b38" stroke-width="1"></path>
<path d="M589.965 189.775C592.007 188.993 596.873 180.689 597.726 178.843C598.579 176.997 597.461 176.494 596.845 176.298C595.946 175.628 594.738 175.19 593.545 175.567C591.795 176.12 589.741 178.569 587.446 178.98C587.363 179.55 587.341 181.656 585.938 182.703C583.84 184.269 577.547 182.479 575.422 181.92C574.38 181.645 566.295 179.959 560.655 178.252C560.655 183.063 560.234 183.482 560.655 186.283C561.326 190.758 565.045 191.093 567.954 193.107C570.281 194.718 574.378 200.627 575.422 202.641L577.323 200.84C577.323 200.84 572.849 195.121 572.429 193.107C572.009 191.093 572.429 188.968 572.429 188.968C575.224 189.44 578.212 191.071 579.673 191.454C581.714 191.988 587.924 190.558 589.965 189.775Z" fill="#7D55FF" stroke="#221b38" stroke-width="1"></path>
<path d="M589.966 189.764C592.007 188.981 596.426 181.499 597.489 179.402C598.552 177.304 597.923 176.619 596.762 176.255C592.851 178.895 588.875 182.87 587.029 184.604C585.183 186.338 579.673 191.453 579.673 191.453C581.715 191.988 587.924 190.547 589.966 189.764Z" fill="black" fill-opacity="0.5" stroke="#221b38" stroke-width="1"></path>
<path d="M572.429 195.903C570.122 193.291 567.843 190.757 568.514 189.47C569.185 188.184 571.051 188.77 572.429 188.967C572.429 188.967 571.926 192.379 572.709 193.889C573.492 195.4 577.352 200.826 577.352 200.826L576.736 201.385C576.736 201.385 576.121 200.658 574.723 198.588C573.977 197.754 573.263 196.847 572.429 195.903Z" fill="black" fill-opacity="0.5" stroke="#221b38" stroke-width="1"></path>
<path d="M474.931 64.7313C478.007 63.9482 480.849 63.3776 485.503 62.6616L506.479 79.7223L513.695 64.4516C516.492 64.7313 518.114 64.7872 520.239 65.2347C522.365 65.6822 519.4 77.0933 519.512 79.7223C519.624 82.3514 521.813 86.6531 521.414 90.4622C520.911 95.2728 517.554 96.1678 516.939 101.034C516.447 104.927 516.398 108.082 516.939 110.096C520.239 114.571 534.333 105.674 539.538 118.598C541.409 123.245 531.755 117.682 530.252 122.961C528.636 128.638 533.066 142.88 530.923 149.364C527.131 160.84 513.024 169.165 515.373 163.46C517.722 157.754 506.423 154.51 502.284 152.944C495.571 152.105 491.376 152.664 485.503 151.098C479.629 149.531 475.027 144.556 476.105 132.694C477 122.85 489.678 115.13 489.678 110.096C490.313 98.1255 486.722 94.8945 485.503 89.735C484.283 84.5756 483.531 81.3151 482.147 75.8627C480.357 68.8147 478.399 67.1925 474.931 64.7313Z" fill="#7D55FF" stroke="#221b38" stroke-width="1"></path>
<path d="M489.679 110.096C490.314 98.1256 486.723 94.8946 485.503 89.7351C484.284 84.5757 483.532 81.3152 482.147 75.8628L491.768 97.5663C491.768 97.5663 495.124 107.635 493.782 113.005C492.439 118.375 479.959 125.614 482.147 134.708C483.321 139.587 483.489 144.329 491.768 145.001C500.047 145.672 506.871 134.082 515.373 136.051C523.876 138.02 529.576 139.819 531.363 141.143C531.622 144.329 531.62 147.256 530.924 149.364C527.131 160.84 513.024 169.165 515.373 163.46C517.723 157.754 506.423 154.51 502.284 152.944C495.572 152.105 491.376 152.664 485.503 151.098C479.63 149.532 475.027 144.556 476.106 132.695C477.001 122.85 489.679 115.13 489.679 110.096Z" fill="black" fill-opacity="0.05" stroke="#221b38" stroke-width="1"></path>
<path d="M500.717 21.0449C493.118 21.0449 486.51 27.0861 486.957 34.8054C487.209 39.1567 488.404 42.6727 489.678 45.3332C490.656 47.374 491.681 48.9114 492.364 49.9365L492.383 49.9642C493.949 52.3136 496.435 54.8357 498.48 55.8935C500.864 57.1265 502.787 57.7394 505.808 57.7954C508.828 57.8513 511.283 50.9799 512.52 46.8318C513.125 44.803 512.835 44.0349 512.835 42.1331C512.835 40.2312 514.478 37.1667 514.478 34.8054C514.478 27.2057 508.317 21.0449 500.717 21.0449Z" fill="#F8BCBF" stroke="#221b38" stroke-width="1"></path>
<path d="M530.618 106.762C528.436 107.434 525.937 108.627 524.744 108.664L525.024 103.238C525.024 103.238 529.331 100.833 531.177 100.162C533.023 99.491 534.365 100.162 535.931 100.162C536.562 100.163 537.483 100.378 538.672 100.162C540.437 99.8426 542.476 99.044 542.476 100.163C542.476 101.281 541.929 101.738 540.966 102.287C540.069 102.798 538.768 103.167 538.337 103.518C537.442 104.245 537.447 104.558 535.931 105.476C533.806 106.762 532.58 106.158 530.618 106.762Z" fill="#E0AAAC" stroke="#221b38" stroke-width="1"></path>
<path d="M483.977 72.9213C482.355 66.9356 478.328 63.5245 474.188 64.867C470.049 66.2095 470.418 73.7003 470.832 77.0606C471.335 81.1439 473.014 92.1639 473.964 96.0795C475.065 100.61 479.726 114.538 484.425 117.838C487.725 120.157 494.92 117.763 503.219 115.545C509.708 113.811 518.658 109.504 520.056 109.168C521.455 108.832 523.361 109.168 525.314 108.777C526.993 108.441 525.93 108.665 528.447 107.882C530.964 107.099 530.908 105.589 530.908 104.582C530.908 103.776 532.698 102.344 533.481 102.344C534.264 102.344 536.278 103.239 537.313 103.714C538.348 104.19 538.599 104.498 539.466 105.197C540.333 105.896 542.99 105.924 541.732 104.582C540.473 103.24 540.281 102.719 538.739 102.065C537.197 101.41 535.551 100.386 535.551 100.386C535.551 100.386 537.061 101.023 537.844 101.309C538.991 101.728 539.411 101.924 540.333 102.54C541.256 103.155 541.047 103.201 542.012 104.582C542.976 105.963 545.843 105.748 544.445 104.302C543.046 102.855 542.012 101.309 542.012 101.309L538.124 98.9039L542.151 101.114C543.289 102.288 543.606 103.323 544.948 104.302C546.291 105.281 548.528 104.386 546.291 102.764C545.304 102.048 544.081 100.19 543.354 99.5192C542.772 98.9822 541.699 98.6382 539.466 97.4775C539.933 97.7199 543.248 99.1891 543.606 99.3234C543.964 99.4576 544.752 101.141 545.647 101.869C546.542 102.596 548.584 102.261 547.326 101.114C546.067 99.9667 545.855 98.8218 544.948 98.0648C544.056 97.3201 542.521 96.5892 541.555 96.1295L541.508 96.107C540.546 95.649 540.116 95.7908 538.599 95.5477C537.201 95.3235 536.985 95.1561 535.886 95.1561C535.103 95.1561 533.229 96.3304 532.167 97.002C530.977 97.7541 525.678 101.813 524.727 102.065C523.776 102.317 514.73 102.751 509.037 103.407C501.765 104.246 495.053 105.365 491.808 105.589C488.564 105.812 488.172 95.2404 487.725 91.3248C487.277 87.4093 484.979 76.6178 483.977 72.9213Z" fill="#F8BCBF" stroke="#221b38" stroke-width="1"></path>
<path d="M511.836 115.242C510.812 114.901 510.158 113.004 510.158 113.004C510.158 113.004 509.151 113.004 508.983 112.165C508.815 111.326 509.748 111.256 509.748 111.256L548.083 109.364L585.113 106.012L582.931 107.858C582.931 107.858 581.813 109.704 581.365 109.984C580.918 110.263 548.642 113.396 548.642 113.396C548.642 113.396 512.86 115.583 511.836 115.242Z" fill="#C4B6FF" stroke="#221b38" stroke-width="1"></path>
<path d="M548.642 113.396L548.083 110.487V109.364L585.113 106.012L582.932 107.858C582.932 107.858 581.813 109.704 581.365 109.984C580.918 110.263 548.642 113.396 548.642 113.396Z" fill="black" fill-opacity="0.2" stroke="#221b38" stroke-width="1"></path>
<path d="M511.836 115.243C510.813 114.902 510.158 112.999 510.158 112.999L548.083 110.488L582.932 107.859C582.932 107.859 581.841 109.677 581.366 109.985C580.89 110.293 548.643 113.397 548.643 113.397C548.643 113.397 512.86 115.584 511.836 115.243Z" fill="black" fill-opacity="0.2" stroke="#221b38" stroke-width="1"></path>
<path d="M585.002 61.6177L550.744 61.6907C550.016 61.6907 549.421 62.2704 549.401 62.9977L548.542 107.827C548.521 108.623 549.024 109.234 549.817 109.174L584.078 106.6C584.764 106.549 585.272 106.015 585.291 105.327L586.484 63.0257C586.505 62.2699 585.758 61.6177 585.002 61.6177Z" fill="#C4B6FF" stroke="#221b38" stroke-width="1"></path>
<path d="M585.002 61.6177L550.744 61.6907C550.016 61.6907 549.421 62.2704 549.401 62.9977L548.542 107.827C548.521 108.623 549.024 109.234 549.817 109.174L584.078 106.6C584.764 106.549 585.272 106.015 585.291 105.327L586.484 63.0257C586.505 62.2699 585.758 61.6177 585.002 61.6177Z" fill="black" fill-opacity="0.3" stroke="#221b38" stroke-width="1"></path>
<path d="M585.131 62.5508H552.355C551.627 62.5508 551.032 63.1305 551.013 63.8579L549.856 107.716C549.835 108.511 550.506 109.15 551.299 109.09L584.074 106.608C584.76 106.557 585.295 105.995 585.315 105.307L586.473 63.9308C586.494 63.175 585.887 62.5508 585.131 62.5508Z" fill="#C4C4C4" stroke="#221b38" stroke-width="1"></path>
<path d="M585.131 62.5508H552.355C551.627 62.5508 551.032 63.1305 551.013 63.8579L549.856 107.716C549.835 108.511 550.506 109.15 551.299 109.09L584.074 106.608C584.76 106.557 585.295 105.995 585.315 105.307L586.473 63.9308C586.494 63.175 585.887 62.5508 585.131 62.5508Z" fill="#C4B6FF" stroke="#221b38" stroke-width="1"></path>
<path d="M556.317 113.491C557.755 112.373 557.716 112.478 558.107 111.967C558.499 111.455 558.862 110.092 559.506 108.806C559.965 107.89 558.275 107.549 557.492 108.415C556.912 109.057 556.772 110.147 556.317 110.82C555.597 111.512 554.241 112.236 553.7 112.373L551.73 117.743C555.534 115.953 553.297 115.841 556.317 113.491Z" fill="#C79496" stroke="#221b38" stroke-width="1"></path>
<path d="M549.158 118.996C550.331 118.41 552.598 117.458 553.074 117.066C553.549 116.675 554.612 114.941 554.891 114.186C555.171 113.431 556.178 110.494 556.178 110.494C556.53 109.682 557.465 107.641 556.374 107.641C555.003 107.641 554.481 108.872 554.136 109.587C553.623 110.65 552.982 112.502 552.486 113.403C552.179 113.962 550.522 117.161 550.221 117.206C550.221 117.206 551.175 115.742 551.395 114.717C551.548 114.008 551.825 113.368 551.935 112.759C552.171 111.459 552.569 110.091 551.935 109.851C551.301 109.61 550.221 110.354 550.025 111.501C549.829 112.647 549.464 114.186 549.158 114.717C548.851 115.249 547.312 117.206 547.312 117.206C547.312 117.206 547.927 115.388 547.927 114.186C547.927 112.75 548.487 111.613 547.927 110.969C547.368 110.326 546.013 111.408 545.858 112.34C545.69 113.347 545.809 114.242 545.634 115.165C545.438 116.199 544.586 117.131 544.291 117.206C542.914 117.558 539.768 114.111 539.768 114.111L540.767 120.227C543.321 121.007 546.697 120.227 549.158 118.996Z" fill="#D5A2A3" stroke="#221b38" stroke-width="1"></path>
<path d="M494.452 38.8336C495.011 34.8061 500.829 37.7145 505.08 33.4636C506.581 31.9628 511.345 28.4293 511.345 28.4293C511.345 28.4293 513.918 29.6599 513.918 34.2468C514.701 39.4489 516.771 39.8404 516.771 39.8404C516.771 39.8404 515.29 38.0624 515.149 35.1977C515.008 32.3509 516.939 28.8768 511.345 23.8425C505.751 18.8082 503.849 19.7035 503.849 19.7035C500.941 18.1372 496.332 17.6451 488.635 22.836C479.014 29.3247 483.488 35.3658 479.685 47.2244C476.642 56.7113 478.79 54.8315 478.79 59.2319C478.79 64.3407 470.489 70.684 476.217 76.5909C483.377 83.9745 482.846 84.7908 483.265 90.8548C483.824 98.9656 492.606 85.9327 492.215 81.793C491.823 77.6534 488.635 76.479 488.635 70.7735C488.635 65.0679 491.843 65.043 492.215 59.2319C492.413 56.1276 490.876 54.2261 491.096 51.0278C491.468 45.6247 494.245 40.3252 494.452 38.8336Z" fill="black" stroke="#221b38" stroke-width="1"></path>
<path d="M508.426 25.0307L508.225 25.1766C508.225 25.1766 505.339 26.8768 499.85 31.1701C498.781 32.0059 495.03 34.2483 492.55 36.2251C490.496 37.8622 489.101 40.0751 487.6 42.6091C483.237 52.8735 479.713 64.6762 479.713 64.6762C479.713 64.6762 484.971 46.7484 487.852 41.7888C489.299 39.603 490.495 37.6248 492.41 36.0925C494.604 34.3374 498.156 32.0847 499.597 30.9952C503.893 27.7479 508.426 25.0307 508.426 25.0307Z" fill="#FFFCFC" fill-opacity="0.15" stroke="#221b38" stroke-width="1"></path>
<path d="M507.882 24.3979L507.625 24.6394C507.625 24.6394 501.016 28.3499 499.291 29.7157C498.186 30.5901 492.933 33.8071 490.704 36.0925C486.669 40.2314 480.384 53.9084 480.384 53.9084C480.384 53.9084 486.627 39.2299 490.425 36.0925C494.186 32.2879 498.587 30.0754 499.291 29.4769C500.746 28.2391 507.882 24.3979 507.882 24.3979Z" fill="#FFFCFC" fill-opacity="0.15" stroke="#221b38" stroke-width="1"></path>
<path d="M507.313 23.7352V23.8144C507.313 23.8144 500.186 25.828 497.389 28.2054C496.432 29.0188 491.3 33.3117 489.362 35.3653C488.158 36.6406 487.361 38.3422 486.202 39.6445C483.77 42.3743 481.922 47.8952 481.922 47.8952C481.922 47.8952 483.625 42.2634 486.062 39.5046C487.228 38.1845 487.882 36.4271 489.134 35.1646C491.225 33.0565 496.486 28.7638 497.239 28.0633C499.383 26.0668 507.313 23.7352 507.313 23.7352Z" fill="#FFFCFC" fill-opacity="0.15" stroke="#221b38" stroke-width="1"></path>
<path d="M506.783 23.1185V23.1851C505.921 23.8342 504.313 24.2127 502.442 24.659C501.612 24.8668 500.735 25.0801 499.86 25.3173C498.032 25.8379 496.165 26.5383 494.623 27.674C492.653 29.1246 490.44 31.9927 488.713 34.5115C487.029 37.0297 485.757 39.2147 485.726 39.2533C485.694 39.2938 486.949 37.085 488.713 34.5115C490.491 31.8548 492.728 28.8273 494.452 27.5579C495.841 26.5356 497.845 25.8632 499.86 25.3173C500.744 25.0654 501.618 24.8556 502.442 24.659C504.323 24.1883 505.961 23.7458 506.783 23.1185Z" fill="#FFFCFC" fill-opacity="0.15" stroke="#221b38" stroke-width="1"></path>
<path d="M504.881 20.9048L505.08 21.1363C503.078 22.516 495.119 20.5066 492.45 22.3338C487.277 25.8746 482.985 39.2533 482.985 39.2533C482.985 39.2533 487.27 25.5747 492.41 22.0161C495.025 20.2064 502.921 22.2532 504.881 20.9048Z" fill="#FFFCFC" fill-opacity="0.15" stroke="#221b38" stroke-width="1"></path>
<path d="M509.147 25.8703L509.387 25.7022C509.387 25.7022 503.214 30.482 500.521 32.6631C499.703 33.326 496.067 34.8032 493.618 36.9036C491.929 38.3512 491.571 40.2326 489.979 41.7888C486.283 45.4032 481.083 65.4873 481.083 65.4873C481.083 65.4873 486.281 45.2385 489.979 41.4908C491.499 39.9509 491.787 38.0966 493.428 36.6699C495.712 34.6834 499.249 33.2798 500.217 32.521C503.572 29.891 509.147 25.8703 509.147 25.8703Z" fill="#FFFCFC" fill-opacity="0.15" stroke="#221b38" stroke-width="1"></path>
<path d="M491.245 26.9175C486.262 31.8189 481.922 42.6091 481.922 42.6091C481.922 42.6091 487.923 28.7807 493.428 25.4645C498.932 22.1484 505.416 22.0157 505.416 22.0157C505.416 22.0157 496.229 22.0161 491.245 26.9175Z" fill="#FFFCFC" fill-opacity="0.15" stroke="#221b38" stroke-width="1"></path>
<path d="M494.452 25.7022C495.55 24.8706 497.423 24.4051 499.374 24.0366C501.641 23.4703 503.653 23.3343 505.045 22.8619C505.383 22.7429 505.678 22.6116 505.918 22.4635C505.984 22.4223 506.048 22.3791 506.109 22.3338C506.05 22.3785 505.986 22.4217 505.918 22.4635C505.664 22.6215 505.372 22.751 505.045 22.8619C503.628 23.3609 501.456 23.6436 499.374 24.0366C497.815 24.4264 496.134 25.0199 494.452 26.0672C492.16 27.4944 489.474 31.0173 487.404 34.5822C486.708 35.4597 485.759 37.3727 485.139 38.3308C482.927 41.7466 480.076 51.3632 480.076 51.3632C480.076 51.3632 482.351 42.3489 484.775 38.3308C486.761 35.0395 489.806 29.171 494.452 25.7022Z" fill="#FFFCFC" fill-opacity="0.15" stroke="#221b38" stroke-width="1"></path>
<path d="M509.803 26.6345C509.696 26.7275 509.583 26.8229 509.466 26.9205C507.613 28.511 505.079 30.9204 502.367 32.8759C500.227 34.6716 497.715 34.5594 495.823 35.9527C494.044 37.2623 492.871 40.0686 491.245 41.9659C489.953 43.8361 488.743 46.7673 487.663 50.0562C485.878 56.0176 484.147 63.5413 483.263 67.6524C482.892 69.5057 482.68 70.6599 482.656 70.6761C482.632 70.6917 482.859 69.5267 483.263 67.6524C484.074 63.5994 485.643 56.2032 487.663 50.0562C488.819 46.1931 489.998 42.986 490.984 41.7888C492.576 39.8561 493.787 37.0565 495.621 35.7345C497.476 34.3975 499.957 34.5391 502.007 32.7598C504.307 30.7651 507.525 28.539 509.466 26.9205C509.581 26.8219 509.694 26.7265 509.803 26.6345Z" fill="#FFFCFC" fill-opacity="0.15" stroke="#221b38" stroke-width="1"></path>
<path d="M510.776 27.7668C510.57 27.9479 510.359 28.1275 510.145 28.3067C508.511 29.7128 506.817 31.2289 504.717 33.0158C502.625 34.7957 496.851 35.4888 495.403 36.9036C493.813 38.4574 493.966 41.0044 491.991 42.8329C488.27 46.2777 488.553 58.5133 488.483 58.6006C488.411 58.6909 487.973 46.2167 491.795 42.6091C493.721 40.7912 493.596 38.2697 495.215 36.7285C496.675 35.339 502.46 34.6617 504.493 32.8759C506.551 31.0679 508.475 29.7006 510.145 28.3067C510.356 28.125 510.566 27.9452 510.776 27.7668Z" fill="#FFFCFC" fill-opacity="0.15" stroke="#221b38" stroke-width="1"></path>
<path d="M513.359 28.2054C513.001 27.1882 511.681 26.7343 511.065 26.6345C511.867 26.5971 513.079 26.6498 513.694 28.0633C514.31 29.4769 514.645 35.1646 514.645 35.1646C514.366 33.2687 513.717 29.2226 513.359 28.2054Z" fill="#FFFCFC" fill-opacity="0.15" stroke="#221b38" stroke-width="1"></path>
<path d="M513.359 26.9175L510.776 25.1766C511.637 25.4735 513.482 26.2372 513.974 26.9175C514.589 27.7678 514.645 28.2054 514.981 30.0513C515.317 31.8972 515.037 32.521 514.981 33.0158C514.925 33.5105 514.645 31.5616 514.645 30.0513C514.645 28.8431 513.788 27.4587 513.359 26.9175Z" fill="#FFFCFC" fill-opacity="0.15" stroke="#221b38" stroke-width="1"></path>
<path d="M512.408 25.1766C511.321 24.5128 509.002 23.1718 508.426 23.1185C508.426 23.1185 509.108 23.1059 510.338 23.7352C511.569 24.3645 512.408 25.1766 512.408 25.1766Z" fill="#FFFCFC" fill-opacity="0.15" stroke="#221b38" stroke-width="1"></path>
<path d="M326.815 468.867C332.806 470.174 339.504 474.218 340.626 473.306C341.482 472.611 332.702 459.835 327.407 454.958C321.132 449.178 310.385 442.602 308.369 437.104C305.331 428.817 307.609 420.096 310.785 415.747C313.991 411.357 318.726 404.847 318.726 404.847C325.434 407.609 333.917 412.542 338.258 416.093C342.6 419.644 344.966 432.073 347.334 437.598C349.228 442.017 356.541 454.991 359.96 463.935C362.722 472.221 365.869 485.094 359.27 489.879C352.671 494.663 324.672 484.398 318.726 482.086C311.624 479.324 300.092 475.404 297.813 474.391C295.534 473.379 293.917 472.961 292.142 472.764C291.493 472.692 291.11 473.105 289.823 474.391C288.442 475.772 286.85 477.008 286.272 477.647C285.335 478.683 284.3 479.376 284.3 482.086C284.3 483.467 284.592 484.634 282.82 484.946C281.456 485.187 279.811 484.059 279.17 482.974C278.528 481.89 277.888 480.261 277.987 478.189C278.085 476.118 280.305 472.32 280.305 472.32C280.305 472.32 281.834 469.459 282.82 466.648C282.82 466.648 283.51 463.688 284.3 462.307C285.089 460.926 286.273 460.039 288.147 460.039C290.021 460.039 290.563 461.42 292.142 462.998C293.405 464.261 295.347 464.774 297.813 465.711C300.28 466.648 301.862 466.856 306.198 467.289C312.829 467.951 320.825 467.56 326.815 468.867Z" fill="#ECB8B8" stroke="#221b38" stroke-width="1"></path>
<path d="M346.283 437.54L346.149 437.597C342.598 439.109 330.642 442.411 322.277 438.781C313.912 435.15 310.144 427.338 308.96 418.854C310.55 416.007 312.558 413.309 314.09 411.259L318.726 404.847C325.433 405.767 339.421 406.82 342.894 406.82H359.072C363.017 406.82 369.134 407.313 378.998 407.313C386.252 407.313 390.317 407.185 393.992 409.286C399.516 412.442 398.628 416.388 397.938 421.32C397.247 426.253 395.407 434.524 393.104 444.601C391.653 450.951 389.257 458.51 387.581 464.724C385.507 472.41 384.917 476.266 384.227 479.324L384.207 479.412C383.535 482.389 383.445 482.789 384.227 484.059C385.054 485.403 386.595 486.053 387.581 486.623C390.478 488.3 391.723 489.09 394.978 490.372C398.234 491.654 401.193 494.614 399.023 496.192C396.853 497.77 392.699 498.283 391.033 497.77C388.468 496.98 384.917 494.91 382.648 493.233C381.229 492.184 378.702 491.161 377.518 491.062C376.335 490.964 373.77 490.175 372.093 488.892C370.416 487.61 372.291 484.059 373.079 482.776C373.868 481.493 374.46 479.916 375.052 478.337C375.644 476.759 376.283 471.573 376.532 462.751C376.663 458.132 376.133 449.835 376.532 444.009C377.062 436.283 380.084 431.875 380.873 426.351C381.267 423.589 371.708 427.96 363.511 430.692C358.232 432.45 351.165 435.46 346.283 437.54Z" fill="#ECB8B8" stroke="#221b38" stroke-width="1"></path>
<path d="M363.51 432.271C358.32 434.413 351.035 437.095 346.148 439.176C342.597 440.689 330.641 443.99 322.276 440.36C313.911 436.73 308.565 428.917 307.381 418.855C308.971 416.008 310.979 413.309 312.51 411.26L317.541 405.242C324.249 406.163 339.42 405.242 342.893 405.242H359.071H379.984C387.238 405.242 391.993 406.496 395.668 408.596C401.192 411.753 400.206 416.389 399.515 421.321C398.825 426.254 396.985 434.525 394.682 444.602C393.23 450.952 390.835 458.511 389.158 464.725C387.085 472.411 385.726 480.776 385.212 481.889C384.697 483.003 372.804 481.565 372.191 479.325C371.578 477.085 373.908 466.451 374.016 462.654C374.146 458.034 374.554 449.836 374.953 444.01C375.483 436.284 378.504 431.876 379.294 426.352C379.688 423.59 370.129 429.539 363.51 432.271Z" fill="#C4B6FF" stroke="#221b38" stroke-width="1"></path>
<path d="M325.828 467.289C330.718 468.356 338.381 472.043 340.3 473.074C338.265 471.218 330.8 459.538 325.828 454.958C319.553 449.178 308.806 442.602 306.789 437.104C303.751 428.817 306.029 420.096 309.206 415.747C312.412 411.357 317.739 405.438 317.739 405.438C322.967 408.299 331.746 415.204 335.988 419.545C340.23 423.885 346.346 431.579 348.714 437.104C350.608 441.523 357.526 454.991 360.946 463.935C363.708 472.221 366.558 485.686 359.959 490.471C353.36 495.255 324.77 485.779 318.824 483.467C311.721 480.705 300.19 477.574 297.911 476.562C295.632 475.549 292.78 474.934 291.303 474.194C289.825 473.454 290.068 461.617 292.781 461.272C295.494 460.926 299.108 462.853 301.956 463.935C304.804 465.017 306.789 465.099 309.946 465.415C316.576 466.077 319.837 465.982 325.828 467.289Z" fill="#C4B6FF" stroke="#221b38" stroke-width="1"></path>
<path d="M325.828 467.289C330.718 468.356 338.381 472.043 340.3 473.074C338.265 471.218 330.8 459.538 325.828 454.958C319.553 449.178 308.806 442.602 306.789 437.104C303.751 428.817 306.029 420.096 309.206 415.747C312.412 411.357 317.739 405.438 317.739 405.438C322.967 408.299 331.746 415.204 335.988 419.545C340.23 423.885 346.346 431.579 348.714 437.104C350.608 441.523 357.526 454.991 360.946 463.935C363.708 472.221 366.558 485.686 359.959 490.471C353.36 495.255 324.77 485.779 318.824 483.467C311.721 480.705 300.19 477.574 297.911 476.562C295.632 475.549 292.78 474.934 291.303 474.194C289.825 473.454 290.068 461.617 292.781 461.272C295.494 460.926 299.108 462.853 301.956 463.935C304.804 465.017 306.789 465.099 309.946 465.415C316.576 466.077 319.837 465.982 325.828 467.289Z" fill="black" fill-opacity="0.2" stroke="#221b38" stroke-width="1"></path>
<path d="M340.23 352.763C336.087 360.654 333.522 376.043 331.944 381.962C330.741 386.472 325.865 392.969 322.174 399.182C321.022 401.121 319.851 403.032 318.725 404.847C318.725 404.847 311.426 412.542 311.228 415.106C311.031 417.671 314.622 419.052 318.725 422.209C323.854 426.155 327.802 429.113 333.72 430.692C339.637 432.271 346.775 425.096 349.108 417.671C351.278 410.766 352.968 407.392 354.04 404.847C355.081 402.376 360.656 397.053 364.497 391.826C366.483 389.123 368.954 385.271 369.626 384.329C371.599 381.567 371.056 374.63 369.626 371.9C367.217 367.3 364.959 365.109 362.327 358.09C360.551 353.355 354.04 345.726 350.095 344.279C347.201 345.726 342.729 348.003 340.23 352.763Z" fill="#ECB8B8" stroke="#221b38" stroke-width="1"></path>
<path d="M347.53 320.099C347.53 311.273 354.684 304.118 363.51 304.118C372.336 304.118 379.491 311.273 379.491 320.099C379.491 320.099 379.283 339.126 371.109 341.151C368.716 341.743 365.483 342.503 365.483 342.503C364.826 343.358 363.51 345.66 363.51 348.028C363.51 350.987 362.327 358.287 362.327 359.865C362.327 361.443 355.018 359.865 352.852 359.865C350.686 359.865 343.781 352.949 343.781 351.184C343.782 350 347.53 345.463 347.53 345.463C347.53 345.463 350.686 340.136 351.673 336.585C352.659 333.034 350.729 330.329 349.668 328.089C348.308 325.738 347.53 323.009 347.53 320.099Z" fill="#ECB8B8" stroke="#221b38" stroke-width="1"></path>
<path d="M357.645 337.884C361.305 340.498 365.483 342.504 365.483 342.504C364.826 343.359 363.51 345.661 363.51 348.029C363.51 350.988 362.327 358.288 362.327 359.866C362.327 361.444 355.018 359.866 352.852 359.866C350.686 359.866 343.781 352.95 343.781 351.185C343.782 350.001 347.53 345.464 347.53 345.464C347.53 345.464 350.686 340.137 351.673 336.586C352.659 333.035 350.729 330.33 349.668 328.09C350.518 329.56 353.985 335.269 357.645 337.884Z" fill="#DBACAC" stroke="#221b38" stroke-width="1"></path>
<path d="M363.511 304.118C354.685 304.118 347.53 311.273 347.53 320.099C347.53 323.009 348.294 325.707 349.012 328.129C349.729 330.55 349.37 333.151 354.752 334.586C360.133 336.021 361.299 334.138 363.511 332.792C370.706 328.417 379.864 331.088 381.029 319.339C381.67 312.881 380.402 305.976 376.186 305.976C371.971 305.976 367.485 304.118 363.511 304.118Z" fill="black" stroke="#221b38" stroke-width="1"></path>
<path d="M351.523 309.653C351.102 316.816 352.868 312.973 353.406 317.277C353.406 320.506 346.483 321.061 344.976 324.362C343.093 328.487 349.695 344.718 341.209 347.052C330.447 350.012 309.523 346.106 330.447 334.586C338.429 330.191 331.464 326.192 332.51 315.213C334.124 298.264 351.971 302.03 351.523 309.653Z" fill="#171717" stroke="#221b38" stroke-width="1"></path>
<path d="M338.454 354.635C334.311 362.527 331.943 376.041 330.365 381.96C329.162 386.47 325.079 392.714 321.388 398.927C320.236 400.866 317.145 403.563 314.778 405.832C314.778 405.832 307.38 414.118 307.183 416.683C306.985 419.247 312.551 422.502 316.654 425.659C321.783 429.606 327.562 431.559 335.396 433.65C343.23 435.74 348.023 425.659 349.798 417.866C351.406 410.809 353.728 407.57 355.125 404.253C356.165 401.783 359.73 398.312 363.411 393.304C365.398 390.601 370.144 386.797 371.204 385.314C373.31 382.365 373.614 377.682 371.204 373.082C368.794 368.481 366.537 365.107 363.904 358.087C362.129 353.353 351.376 347.204 347.431 345.757C344.537 347.204 341.322 349.171 338.454 354.635Z" fill="#7D55FF" stroke="#221b38" stroke-width="1"></path>
<path d="M356.186 347.77C354.105 345.904 350.895 342.12 349.101 341.223C347.307 340.325 344.617 345.528 344.437 346.694C344.258 347.86 350.751 352.72 355.558 355.662C360.365 358.604 364.437 365.049 365.693 367.5C365.693 367.5 365.513 355.842 364.616 354.407C363.72 352.972 358.267 349.635 356.186 347.77Z" fill="#7D55FF" stroke="#221b38" stroke-width="1"></path>
<path d="M356.186 347.77C354.105 345.904 350.895 342.12 349.101 341.223C347.307 340.325 344.617 345.528 344.437 346.694C344.258 347.86 350.751 352.72 355.558 355.662C360.365 358.604 364.437 365.049 365.693 367.5C365.693 367.5 365.513 355.842 364.616 354.407C363.72 352.972 358.267 349.635 356.186 347.77Z" fill="white" fill-opacity="0.2" stroke="#221b38" stroke-width="1"></path>
<path d="M408.748 356.51C408.748 356.51 409.635 355.821 410.721 354.883C411.189 354.479 411.699 354.081 411.868 353.586L411.88 353.552C411.876 353.563 411.872 353.575 411.868 353.586L410.721 357.128L408.748 356.51Z" fill="#D8A8A8" stroke="#221b38" stroke-width="1"></path>
<path d="M410.622 358.631C410.622 358.631 412.023 357.48 413.137 356.829C413.434 356.656 413.976 356.163 414.065 355.895L413.532 359.224L410.622 358.631Z" fill="#D8A8A8" stroke="#221b38" stroke-width="1"></path>
<path d="M413.877 360.334C414.208 360.014 415.401 359.119 415.653 358.631C415.653 358.631 415.431 360.066 414.913 360.929C414.395 361.793 411.46 363.86 411.46 363.86C412.295 362.511 412.204 362.392 412.546 361.937C412.976 361.363 412.94 361.303 413.284 360.929C413.413 360.789 413.596 360.605 413.877 360.334Z" fill="#D8A8A8" stroke="#221b38" stroke-width="1"></path>
<path d="M351.277 356.117C348.352 353.897 344.471 355.87 343.148 356.905C341.825 357.941 339.843 359.669 340.139 365.193C340.435 370.717 343.197 376.141 345.17 379.792C347.143 383.444 351.483 391.086 353.555 393.65C355.626 396.215 361.89 404.403 366.428 404.6C372.741 404.875 380.501 393.436 383.633 390.841C387.086 387.98 394.739 378.41 400.954 371.9C403.124 370.025 406.04 369.703 408.402 367.856C410.926 365.881 411.953 362.726 412.545 361.937C413.137 361.148 412.846 361.33 413.877 360.334C414.207 360.015 415.401 359.119 415.652 358.632C415.867 358.216 415.638 357.699 415.356 357.301C414.981 356.771 414.538 356.569 414.064 356.709C413.764 356.797 413.255 357.094 412.939 357.301C411.486 358.252 410.621 358.632 410.621 358.632C410.621 358.632 412.022 357.48 413.137 356.83C413.434 356.656 413.975 356.163 414.064 355.895C414.153 355.627 414.068 355.094 413.531 354.489C413.157 354.067 412.682 353.797 412.372 353.897C411.948 354.035 411.419 354.395 411.115 354.711C410.473 355.377 408.747 356.511 408.747 356.511C408.747 356.511 409.635 355.821 410.72 354.884C411.2 354.469 411.723 354.063 411.879 353.552C412.008 353.131 412.002 352.615 411.558 352.171C411.095 351.708 410.545 351.277 409.931 351.505C408.722 351.955 406.617 354.19 406.617 354.19L409.141 351.087C409.141 351.087 410.209 349.555 411.46 348.225C412.356 347.272 412.346 347.23 413.284 346.095C413.75 345.531 414.222 344.079 413.531 343.466C412.917 342.92 411.726 343.527 411.263 344.081C410.799 344.635 410.621 344.963 409.437 346.095C408.254 347.228 407.987 347.438 406.873 348.866C406.001 349.982 405.097 350.937 404.407 351.381C403.716 351.825 402.828 352.911 401.497 355.377C400.165 357.843 399.672 358.632 398.389 361.246C397.107 363.861 396.192 365.822 393.556 367.856C390.92 369.889 384.221 375.937 380.279 379.792C376.337 383.648 368.845 390.841 367.751 390.15C366.658 389.46 364.2 382.061 363.214 379.792C362.227 377.524 360.156 371.309 357.591 365.193C355.026 359.077 354.591 358.632 351.277 356.117Z" fill="#ECB8B8" stroke="#221b38" stroke-width="1"></path>
<path d="M413.532 343.466C413.232 343.2 412.796 343.208 412.373 343.35C412.373 343.35 411.738 343.847 411.559 344.303C411.358 344.814 411.087 345.245 411.559 345.709C412.031 346.173 412.45 345.934 412.94 345.709C413.484 345.458 413.877 344.495 413.877 344.495C413.899 344.091 413.808 343.711 413.532 343.466Z" fill="#BA7171" stroke="#221b38" stroke-width="1"></path>
<path d="M355.519 358.876C353.743 355.226 347.436 353.583 343.88 355.425C339.776 357.551 339.165 364.265 339.638 366.475C340.23 369.237 342.598 377.228 343.88 379.792C345.162 382.355 351.279 394.195 354.04 397.647C356.802 401.098 360.057 405.537 366.765 405.537C373.473 405.537 379.818 397.351 383.239 393.502C385.448 391.016 399.219 374.759 399.614 373.872C400.008 372.984 394.386 367.954 393.498 367.658C392.611 367.363 381.667 377.648 379.687 379.297C378.504 380.284 370.415 388.866 368.541 388.866C366.666 388.866 364.793 380.976 364.004 379.792C363.214 378.608 357.68 363.317 355.519 358.876Z" fill="#7D55FF" stroke="#221b38" stroke-width="1"></path>
<path d="M355.519 358.876C353.743 355.226 347.436 353.583 343.88 355.425C339.776 357.551 339.165 364.265 339.638 366.475C340.23 369.237 342.598 377.228 343.88 379.792C345.162 382.355 351.279 394.195 354.04 397.647C356.802 401.098 360.057 405.537 366.765 405.537C373.473 405.537 379.818 397.351 383.239 393.502C385.448 391.016 399.219 374.759 399.614 373.872C400.008 372.984 394.386 367.954 393.498 367.658C392.611 367.363 381.667 377.648 379.687 379.297C378.504 380.284 370.415 388.866 368.541 388.866C366.666 388.866 364.793 380.976 364.004 379.792C363.214 378.608 357.68 363.317 355.519 358.876Z" fill="black" fill-opacity="0.2" stroke="#221b38" stroke-width="1"></path>
<path d="M369.979 486.377C370.373 484.347 370.818 484.061 371.657 482.48C372.331 481.209 372.007 480.026 372.89 479.721C374.32 479.228 374.832 482.194 377.575 482.779C381.52 483.62 383.81 480.171 385.467 481.891C385.96 482.403 385.331 483.071 385.96 484.061C387.883 487.087 389.871 487.768 393.161 489.191C396.811 490.769 401.497 492.938 400.165 496.194C398.833 499.451 392.618 498.215 389.314 498.069C382.606 497.77 383.79 495.109 380.83 492.938C379.173 491.721 377.267 490.202 375.602 491.408C374.789 491.997 374.32 493.924 374.32 493.924L369.979 492.938V489.781C369.979 488.317 369.701 487.814 369.979 486.377Z" fill="#C4B6FF" stroke="#221b38" stroke-width="1"></path>
<path d="M369.979 486.377C370.373 484.347 370.818 484.061 371.657 482.48C372.331 481.209 372.007 480.026 372.89 479.721C374.32 479.228 374.832 482.194 377.575 482.779C381.52 483.62 383.81 480.171 385.467 481.891C385.96 482.403 385.331 483.071 385.96 484.061C387.883 487.087 389.871 487.768 393.161 489.191C396.811 490.769 401.497 492.938 400.165 496.194C398.833 499.451 392.618 498.215 389.314 498.069C382.606 497.77 383.79 495.109 380.83 492.938C379.173 491.721 377.267 490.202 375.602 491.408C374.789 491.997 374.32 493.924 374.32 493.924L369.979 492.938V489.781C369.979 488.317 369.701 487.814 369.979 486.377Z" fill="black" fill-opacity="0.1" stroke="#221b38" stroke-width="1"></path>
<path d="M369.98 492.936V489.779C369.98 489.257 369.944 488.857 369.911 488.493C369.911 488.493 375.011 489.284 375.603 489.532C376.194 489.779 378.019 489.976 379.992 491.159C381.965 492.343 383.746 495.873 386.454 496.634C389.161 497.395 393.161 497.67 396.417 497.374C398.729 497.164 400.165 496.192 400.165 496.192C398.833 499.449 392.618 498.213 389.314 498.067C382.606 497.769 383.79 495.107 380.831 492.936C379.173 491.719 377.268 490.2 375.603 491.406C374.789 491.995 374.32 493.922 374.32 493.922L369.98 492.936Z" fill="black" fill-opacity="0.2" stroke="#221b38" stroke-width="1"></path>
<path d="M289.09 458.707C291.556 458.707 294.072 460.581 293.53 461.568C292.987 462.554 290.626 464.052 290.027 466.598C289.428 469.143 291.852 472.664 291.852 473.749C291.852 474.834 291.014 474.242 290.027 474.686C289.04 475.13 285.49 478.434 285.095 479.915C284.701 481.395 286.328 485.243 284.355 485.686C282.382 486.13 279.966 485.194 278.634 483.812C277.302 482.43 276.094 480.683 276.71 476.906C277.327 473.129 280.458 471.974 281.593 469.557C282.091 468.496 282.596 467.193 283.073 465.611L280.458 464.429L281.593 459.546L284.355 459.84C284.355 459.84 284.944 459.722 285.857 459.415C286.006 459.365 286.163 459.31 286.328 459.249C287.001 459.004 287.608 458.707 289.09 458.707Z" fill="#C4B6FF" stroke="#221b38" stroke-width="1"></path>
<path d="M276.71 476.906C277.327 473.129 280.458 471.974 281.593 469.557C282.091 468.496 282.596 467.193 283.073 465.611L280.458 464.429L281.593 459.546L284.355 459.84C284.355 459.84 284.944 459.722 285.857 459.415C285.833 460.149 285.717 461.992 285.441 463.492C285.095 465.366 283.862 468.325 283.073 469.557C282.417 470.58 281.442 471.894 280.458 472.961C279.661 473.826 278.283 474.877 277.96 477.082C277.746 478.537 277.592 480.228 277.746 481.001C278.092 482.727 278.453 483.385 278.634 483.812C277.302 482.43 276.094 480.683 276.71 476.906Z" fill="black" fill-opacity="0.2" stroke="#221b38" stroke-width="1"></path>
</svg>